<svg xmlns="http://www.w3.org/2000/svg" version="1.1" xmlns:xlink="http://www.w3.org/1999/xlink"
    xmlns:svgjs="http://svgjs.com/svgjs" width="1440" height="560" preserveAspectRatio="none" viewBox="0 0 1440 560">
    <g mask="url(&quot;#SvgjsMask1020&quot;)" fill="none">
        <rect width="1440" height="560" x="0" y="0" fill="rgba(14, 42, 71, 1)"></rect>
        <path
            d="M84.92 71.24L149.88 108.74L149.88 183.74L84.92 221.24L19.97 183.74L19.97 108.74zM19.97 183.74L84.92 221.24L84.92 296.24L19.97 333.74L-44.98 296.24L-44.98 221.24zM84.92 521.24L149.88 558.74L149.88 633.74L84.92 671.24L19.97 633.74L19.97 558.74zM214.83 296.24L279.78 333.74L279.78 408.74L214.83 446.24L149.88 408.74L149.88 333.74zM214.83 521.24L279.78 558.74L279.78 633.74L214.83 671.24L149.88 633.74L149.88 558.74zM344.74 71.24L409.69 108.74L409.69 183.74L344.74 221.24L279.78 183.74L279.78 108.74zM279.78 183.74L344.74 221.24L344.74 296.24L279.78 333.74L214.83 296.24L214.83 221.24zM344.74 296.24L409.69 333.74L409.69 408.74L344.74 446.24L279.78 408.74L279.78 333.74zM409.69 -41.26L474.65 -3.76L474.65 71.24L409.69 108.74L344.74 71.24L344.74 -3.76zM409.69 183.74L474.65 221.24L474.65 296.24L409.69 333.74L344.74 296.24L344.74 221.24zM474.65 296.24L539.6 333.74L539.6 408.74L474.65 446.24L409.69 408.74L409.69 333.74zM409.69 408.74L474.65 446.24L474.65 521.24L409.69 558.74L344.74 521.24L344.74 446.24zM474.65 521.24L539.6 558.74L539.6 633.74L474.65 671.24L409.69 633.74L409.69 558.74zM604.55 71.24L669.51 108.74L669.51 183.74L604.55 221.24L539.6 183.74L539.6 108.74zM604.55 296.24L669.51 333.74L669.51 408.74L604.55 446.24L539.6 408.74L539.6 333.74zM539.6 408.74L604.55 446.24L604.55 521.24L539.6 558.74L474.65 521.24L474.65 446.24zM669.51 183.74L734.46 221.24L734.46 296.24L669.51 333.74L604.55 296.24L604.55 221.24zM669.51 408.74L734.46 446.24L734.46 521.24L669.51 558.74L604.55 521.24L604.55 446.24zM864.37 296.24L929.32 333.74L929.32 408.74L864.37 446.24L799.41 408.74L799.41 333.74zM799.41 408.74L864.37 446.24L864.37 521.24L799.41 558.74L734.46 521.24L734.46 446.24zM929.32 -41.26L994.28 -3.76L994.28 71.24L929.32 108.74L864.37 71.24L864.37 -3.76zM994.28 71.24L1059.23 108.74L1059.23 183.74L994.28 221.24L929.32 183.74L929.32 108.74zM994.28 296.24L1059.23 333.74L1059.23 408.74L994.28 446.24L929.32 408.74L929.32 333.74zM929.32 408.74L994.28 446.24L994.28 521.24L929.32 558.74L864.37 521.24L864.37 446.24zM1124.18 71.24L1189.14 108.74L1189.14 183.74L1124.18 221.24L1059.23 183.74L1059.23 108.74zM1124.18 296.24L1189.14 333.74L1189.14 408.74L1124.18 446.24L1059.23 408.74L1059.23 333.74zM1189.14 183.74L1254.09 221.24L1254.09 296.24L1189.14 333.74L1124.18 296.24L1124.18 221.24zM1254.09 296.24L1319.04 333.74L1319.04 408.74L1254.09 446.24L1189.14 408.74L1189.14 333.74zM1189.14 408.74L1254.09 446.24L1254.09 521.24L1189.14 558.74L1124.18 521.24L1124.18 446.24zM1319.05 -41.26L1384 -3.76L1384 71.24L1319.05 108.74L1254.09 71.24L1254.09 -3.76zM1384 71.24L1448.95 108.74L1448.95 183.74L1384 221.24L1319.05 183.74L1319.05 108.74zM1319.05 183.74L1384 221.24L1384 296.24L1319.05 333.74L1254.09 296.24L1254.09 221.24zM1384 296.24L1448.95 333.74L1448.95 408.74L1384 446.24L1319.05 408.74L1319.05 333.74zM1319.05 408.74L1384 446.24L1384 521.24L1319.05 558.74L1254.09 521.24L1254.09 446.24zM1384 521.24L1448.95 558.74L1448.95 633.74L1384 671.24L1319.05 633.74L1319.05 558.74zM1448.95 -41.26L1513.91 -3.76L1513.91 71.24L1448.95 108.74L1384 71.24L1384 -3.76zM1513.91 71.24L1578.86 108.74L1578.86 183.74L1513.91 221.24L1448.95 183.74L1448.95 108.74zM1448.95 183.74L1513.91 221.24L1513.91 296.24L1448.95 333.74L1384 296.24L1384 221.24zM1513.91 296.24L1578.86 333.74L1578.86 408.74L1513.91 446.24L1448.95 408.74L1448.95 333.74zM1448.95 408.74L1513.91 446.24L1513.91 521.24L1448.95 558.74L1384 521.24L1384 446.24z"
            stroke="rgba(3, 48, 93, 1)" stroke-width="2"></path>
        <path
            d="M77.42 71.24 a7.5 7.5 0 1 0 15 0 a7.5 7.5 0 1 0 -15 0zM142.38 108.74 a7.5 7.5 0 1 0 15 0 a7.5 7.5 0 1 0 -15 0zM142.38 183.74 a7.5 7.5 0 1 0 15 0 a7.5 7.5 0 1 0 -15 0zM77.42 221.24 a7.5 7.5 0 1 0 15 0 a7.5 7.5 0 1 0 -15 0zM12.47 183.74 a7.5 7.5 0 1 0 15 0 a7.5 7.5 0 1 0 -15 0zM12.47 108.74 a7.5 7.5 0 1 0 15 0 a7.5 7.5 0 1 0 -15 0zM77.42 296.24 a7.5 7.5 0 1 0 15 0 a7.5 7.5 0 1 0 -15 0zM12.47 333.74 a7.5 7.5 0 1 0 15 0 a7.5 7.5 0 1 0 -15 0zM-52.48 296.24 a7.5 7.5 0 1 0 15 0 a7.5 7.5 0 1 0 -15 0zM-52.48 221.24 a7.5 7.5 0 1 0 15 0 a7.5 7.5 0 1 0 -15 0zM77.42 521.24 a7.5 7.5 0 1 0 15 0 a7.5 7.5 0 1 0 -15 0zM142.38 558.74 a7.5 7.5 0 1 0 15 0 a7.5 7.5 0 1 0 -15 0zM142.38 633.74 a7.5 7.5 0 1 0 15 0 a7.5 7.5 0 1 0 -15 0zM77.42 671.24 a7.5 7.5 0 1 0 15 0 a7.5 7.5 0 1 0 -15 0zM12.47 633.74 a7.5 7.5 0 1 0 15 0 a7.5 7.5 0 1 0 -15 0zM12.47 558.74 a7.5 7.5 0 1 0 15 0 a7.5 7.5 0 1 0 -15 0zM207.33 296.24 a7.5 7.5 0 1 0 15 0 a7.5 7.5 0 1 0 -15 0zM272.28 333.74 a7.5 7.5 0 1 0 15 0 a7.5 7.5 0 1 0 -15 0zM272.28 408.74 a7.5 7.5 0 1 0 15 0 a7.5 7.5 0 1 0 -15 0zM207.33 446.24 a7.5 7.5 0 1 0 15 0 a7.5 7.5 0 1 0 -15 0zM142.38 408.74 a7.5 7.5 0 1 0 15 0 a7.5 7.5 0 1 0 -15 0zM142.38 333.74 a7.5 7.5 0 1 0 15 0 a7.5 7.5 0 1 0 -15 0zM207.33 521.24 a7.5 7.5 0 1 0 15 0 a7.5 7.5 0 1 0 -15 0zM272.28 558.74 a7.5 7.5 0 1 0 15 0 a7.5 7.5 0 1 0 -15 0zM272.28 633.74 a7.5 7.5 0 1 0 15 0 a7.5 7.5 0 1 0 -15 0zM207.33 671.24 a7.5 7.5 0 1 0 15 0 a7.5 7.5 0 1 0 -15 0zM337.24 71.24 a7.5 7.5 0 1 0 15 0 a7.5 7.5 0 1 0 -15 0zM402.19 108.74 a7.5 7.5 0 1 0 15 0 a7.5 7.5 0 1 0 -15 0zM402.19 183.74 a7.5 7.5 0 1 0 15 0 a7.5 7.5 0 1 0 -15 0zM337.24 221.24 a7.5 7.5 0 1 0 15 0 a7.5 7.5 0 1 0 -15 0zM272.28 183.74 a7.5 7.5 0 1 0 15 0 a7.5 7.5 0 1 0 -15 0zM272.28 108.74 a7.5 7.5 0 1 0 15 0 a7.5 7.5 0 1 0 -15 0zM337.24 296.24 a7.5 7.5 0 1 0 15 0 a7.5 7.5 0 1 0 -15 0zM207.33 221.24 a7.5 7.5 0 1 0 15 0 a7.5 7.5 0 1 0 -15 0zM402.19 333.74 a7.5 7.5 0 1 0 15 0 a7.5 7.5 0 1 0 -15 0zM402.19 408.74 a7.5 7.5 0 1 0 15 0 a7.5 7.5 0 1 0 -15 0zM337.24 446.24 a7.5 7.5 0 1 0 15 0 a7.5 7.5 0 1 0 -15 0zM402.19 -41.26 a7.5 7.5 0 1 0 15 0 a7.5 7.5 0 1 0 -15 0zM467.15 -3.76 a7.5 7.5 0 1 0 15 0 a7.5 7.5 0 1 0 -15 0zM467.15 71.24 a7.5 7.5 0 1 0 15 0 a7.5 7.5 0 1 0 -15 0zM337.24 -3.76 a7.5 7.5 0 1 0 15 0 a7.5 7.5 0 1 0 -15 0zM467.15 221.24 a7.5 7.5 0 1 0 15 0 a7.5 7.5 0 1 0 -15 0zM467.15 296.24 a7.5 7.5 0 1 0 15 0 a7.5 7.5 0 1 0 -15 0zM532.1 333.74 a7.5 7.5 0 1 0 15 0 a7.5 7.5 0 1 0 -15 0zM532.1 408.74 a7.5 7.5 0 1 0 15 0 a7.5 7.5 0 1 0 -15 0zM467.15 446.24 a7.5 7.5 0 1 0 15 0 a7.5 7.5 0 1 0 -15 0zM467.15 521.24 a7.5 7.5 0 1 0 15 0 a7.5 7.5 0 1 0 -15 0zM402.19 558.74 a7.5 7.5 0 1 0 15 0 a7.5 7.5 0 1 0 -15 0zM337.24 521.24 a7.5 7.5 0 1 0 15 0 a7.5 7.5 0 1 0 -15 0zM532.1 558.74 a7.5 7.5 0 1 0 15 0 a7.5 7.5 0 1 0 -15 0zM532.1 633.74 a7.5 7.5 0 1 0 15 0 a7.5 7.5 0 1 0 -15 0zM467.15 671.24 a7.5 7.5 0 1 0 15 0 a7.5 7.5 0 1 0 -15 0zM402.19 633.74 a7.5 7.5 0 1 0 15 0 a7.5 7.5 0 1 0 -15 0zM597.05 71.24 a7.5 7.5 0 1 0 15 0 a7.5 7.5 0 1 0 -15 0zM662.01 108.74 a7.5 7.5 0 1 0 15 0 a7.5 7.5 0 1 0 -15 0zM662.01 183.74 a7.5 7.5 0 1 0 15 0 a7.5 7.5 0 1 0 -15 0zM597.05 221.24 a7.5 7.5 0 1 0 15 0 a7.5 7.5 0 1 0 -15 0zM532.1 183.74 a7.5 7.5 0 1 0 15 0 a7.5 7.5 0 1 0 -15 0zM532.1 108.74 a7.5 7.5 0 1 0 15 0 a7.5 7.5 0 1 0 -15 0zM597.05 296.24 a7.5 7.5 0 1 0 15 0 a7.5 7.5 0 1 0 -15 0zM662.01 333.74 a7.5 7.5 0 1 0 15 0 a7.5 7.5 0 1 0 -15 0zM662.01 408.74 a7.5 7.5 0 1 0 15 0 a7.5 7.5 0 1 0 -15 0zM597.05 446.24 a7.5 7.5 0 1 0 15 0 a7.5 7.5 0 1 0 -15 0zM597.05 521.24 a7.5 7.5 0 1 0 15 0 a7.5 7.5 0 1 0 -15 0zM726.96 221.24 a7.5 7.5 0 1 0 15 0 a7.5 7.5 0 1 0 -15 0zM726.96 296.24 a7.5 7.5 0 1 0 15 0 a7.5 7.5 0 1 0 -15 0zM726.96 446.24 a7.5 7.5 0 1 0 15 0 a7.5 7.5 0 1 0 -15 0zM726.96 521.24 a7.5 7.5 0 1 0 15 0 a7.5 7.5 0 1 0 -15 0zM662.01 558.74 a7.5 7.5 0 1 0 15 0 a7.5 7.5 0 1 0 -15 0zM856.87 296.24 a7.5 7.5 0 1 0 15 0 a7.5 7.5 0 1 0 -15 0zM921.82 333.74 a7.5 7.5 0 1 0 15 0 a7.5 7.5 0 1 0 -15 0zM921.82 408.74 a7.5 7.5 0 1 0 15 0 a7.5 7.5 0 1 0 -15 0zM856.87 446.24 a7.5 7.5 0 1 0 15 0 a7.5 7.5 0 1 0 -15 0zM791.91 408.74 a7.5 7.5 0 1 0 15 0 a7.5 7.5 0 1 0 -15 0zM791.91 333.74 a7.5 7.5 0 1 0 15 0 a7.5 7.5 0 1 0 -15 0zM856.87 521.24 a7.5 7.5 0 1 0 15 0 a7.5 7.5 0 1 0 -15 0zM791.91 558.74 a7.5 7.5 0 1 0 15 0 a7.5 7.5 0 1 0 -15 0zM921.82 -41.26 a7.5 7.5 0 1 0 15 0 a7.5 7.5 0 1 0 -15 0zM986.78 -3.76 a7.5 7.5 0 1 0 15 0 a7.5 7.5 0 1 0 -15 0zM986.78 71.24 a7.5 7.5 0 1 0 15 0 a7.5 7.5 0 1 0 -15 0zM921.82 108.74 a7.5 7.5 0 1 0 15 0 a7.5 7.5 0 1 0 -15 0zM856.87 71.24 a7.5 7.5 0 1 0 15 0 a7.5 7.5 0 1 0 -15 0zM856.87 -3.76 a7.5 7.5 0 1 0 15 0 a7.5 7.5 0 1 0 -15 0zM1051.73 108.74 a7.5 7.5 0 1 0 15 0 a7.5 7.5 0 1 0 -15 0zM1051.73 183.74 a7.5 7.5 0 1 0 15 0 a7.5 7.5 0 1 0 -15 0zM986.78 221.24 a7.5 7.5 0 1 0 15 0 a7.5 7.5 0 1 0 -15 0zM921.82 183.74 a7.5 7.5 0 1 0 15 0 a7.5 7.5 0 1 0 -15 0zM986.78 296.24 a7.5 7.5 0 1 0 15 0 a7.5 7.5 0 1 0 -15 0zM1051.73 333.74 a7.5 7.5 0 1 0 15 0 a7.5 7.5 0 1 0 -15 0zM1051.73 408.74 a7.5 7.5 0 1 0 15 0 a7.5 7.5 0 1 0 -15 0zM986.78 446.24 a7.5 7.5 0 1 0 15 0 a7.5 7.5 0 1 0 -15 0zM986.78 521.24 a7.5 7.5 0 1 0 15 0 a7.5 7.5 0 1 0 -15 0zM921.82 558.74 a7.5 7.5 0 1 0 15 0 a7.5 7.5 0 1 0 -15 0zM1116.68 71.24 a7.5 7.5 0 1 0 15 0 a7.5 7.5 0 1 0 -15 0zM1181.64 108.74 a7.5 7.5 0 1 0 15 0 a7.5 7.5 0 1 0 -15 0zM1181.64 183.74 a7.5 7.5 0 1 0 15 0 a7.5 7.5 0 1 0 -15 0zM1116.68 221.24 a7.5 7.5 0 1 0 15 0 a7.5 7.5 0 1 0 -15 0zM1116.68 296.24 a7.5 7.5 0 1 0 15 0 a7.5 7.5 0 1 0 -15 0zM1181.64 333.74 a7.5 7.5 0 1 0 15 0 a7.5 7.5 0 1 0 -15 0zM1181.64 408.74 a7.5 7.5 0 1 0 15 0 a7.5 7.5 0 1 0 -15 0zM1116.68 446.24 a7.5 7.5 0 1 0 15 0 a7.5 7.5 0 1 0 -15 0zM1246.59 221.24 a7.5 7.5 0 1 0 15 0 a7.5 7.5 0 1 0 -15 0zM1246.59 296.24 a7.5 7.5 0 1 0 15 0 a7.5 7.5 0 1 0 -15 0zM1311.54 333.74 a7.5 7.5 0 1 0 15 0 a7.5 7.5 0 1 0 -15 0zM1311.54 408.74 a7.5 7.5 0 1 0 15 0 a7.5 7.5 0 1 0 -15 0zM1246.59 446.24 a7.5 7.5 0 1 0 15 0 a7.5 7.5 0 1 0 -15 0zM1246.59 521.24 a7.5 7.5 0 1 0 15 0 a7.5 7.5 0 1 0 -15 0zM1181.64 558.74 a7.5 7.5 0 1 0 15 0 a7.5 7.5 0 1 0 -15 0zM1116.68 521.24 a7.5 7.5 0 1 0 15 0 a7.5 7.5 0 1 0 -15 0zM1311.55 -41.26 a7.5 7.5 0 1 0 15 0 a7.5 7.5 0 1 0 -15 0zM1376.5 -3.76 a7.5 7.5 0 1 0 15 0 a7.5 7.5 0 1 0 -15 0zM1376.5 71.24 a7.5 7.5 0 1 0 15 0 a7.5 7.5 0 1 0 -15 0zM1311.55 108.74 a7.5 7.5 0 1 0 15 0 a7.5 7.5 0 1 0 -15 0zM1246.59 71.24 a7.5 7.5 0 1 0 15 0 a7.5 7.5 0 1 0 -15 0zM1246.59 -3.76 a7.5 7.5 0 1 0 15 0 a7.5 7.5 0 1 0 -15 0zM1441.45 108.74 a7.5 7.5 0 1 0 15 0 a7.5 7.5 0 1 0 -15 0zM1441.45 183.74 a7.5 7.5 0 1 0 15 0 a7.5 7.5 0 1 0 -15 0zM1376.5 221.24 a7.5 7.5 0 1 0 15 0 a7.5 7.5 0 1 0 -15 0zM1311.55 183.74 a7.5 7.5 0 1 0 15 0 a7.5 7.5 0 1 0 -15 0zM1376.5 296.24 a7.5 7.5 0 1 0 15 0 a7.5 7.5 0 1 0 -15 0zM1311.55 333.74 a7.5 7.5 0 1 0 15 0 a7.5 7.5 0 1 0 -15 0zM1441.45 333.74 a7.5 7.5 0 1 0 15 0 a7.5 7.5 0 1 0 -15 0zM1441.45 408.74 a7.5 7.5 0 1 0 15 0 a7.5 7.5 0 1 0 -15 0zM1376.5 446.24 a7.5 7.5 0 1 0 15 0 a7.5 7.5 0 1 0 -15 0zM1311.55 408.74 a7.5 7.5 0 1 0 15 0 a7.5 7.5 0 1 0 -15 0zM1376.5 521.24 a7.5 7.5 0 1 0 15 0 a7.5 7.5 0 1 0 -15 0zM1311.55 558.74 a7.5 7.5 0 1 0 15 0 a7.5 7.5 0 1 0 -15 0zM1441.45 558.74 a7.5 7.5 0 1 0 15 0 a7.5 7.5 0 1 0 -15 0zM1441.45 633.74 a7.5 7.5 0 1 0 15 0 a7.5 7.5 0 1 0 -15 0zM1376.5 671.24 a7.5 7.5 0 1 0 15 0 a7.5 7.5 0 1 0 -15 0zM1311.55 633.74 a7.5 7.5 0 1 0 15 0 a7.5 7.5 0 1 0 -15 0zM1441.45 -41.26 a7.5 7.5 0 1 0 15 0 a7.5 7.5 0 1 0 -15 0zM1506.41 -3.76 a7.5 7.5 0 1 0 15 0 a7.5 7.5 0 1 0 -15 0zM1506.41 71.24 a7.5 7.5 0 1 0 15 0 a7.5 7.5 0 1 0 -15 0zM1571.36 108.74 a7.5 7.5 0 1 0 15 0 a7.5 7.5 0 1 0 -15 0zM1571.36 183.74 a7.5 7.5 0 1 0 15 0 a7.5 7.5 0 1 0 -15 0zM1506.41 221.24 a7.5 7.5 0 1 0 15 0 a7.5 7.5 0 1 0 -15 0zM1506.41 296.24 a7.5 7.5 0 1 0 15 0 a7.5 7.5 0 1 0 -15 0zM1571.36 333.74 a7.5 7.5 0 1 0 15 0 a7.5 7.5 0 1 0 -15 0zM1571.36 408.74 a7.5 7.5 0 1 0 15 0 a7.5 7.5 0 1 0 -15 0zM1506.41 446.24 a7.5 7.5 0 1 0 15 0 a7.5 7.5 0 1 0 -15 0zM1506.41 521.24 a7.5 7.5 0 1 0 15 0 a7.5 7.5 0 1 0 -15 0z"
            fill="rgba(3, 48, 93, 1)"></path>
        <path
            d="M49.55 -14.38L92.85 10.62L92.85 60.62L49.55 85.62L6.25 60.62L6.25 10.62zM92.85 360.62L136.16 385.62L136.16 435.62L92.85 460.62L49.55 435.62L49.55 385.62zM136.16 135.62L179.46 160.62L179.46 210.62L136.16 235.62L92.85 210.62L92.85 160.62zM179.46 510.62L222.76 535.62L222.76 585.62L179.46 610.62L136.16 585.62L136.16 535.62zM309.37 285.62L352.67 310.62L352.67 360.62L309.37 385.62L266.06 360.62L266.06 310.62zM395.97 135.62L439.27 160.62L439.27 210.62L395.97 235.62L352.67 210.62L352.67 160.62zM439.27 210.62L482.58 235.62L482.58 285.62L439.27 310.62L395.97 285.62L395.97 235.62zM439.27 510.62L482.58 535.62L482.58 585.62L439.27 610.62L395.97 585.62L395.97 535.62zM482.58 -14.38L525.88 10.62L525.88 60.62L482.58 85.62L439.27 60.62L439.27 10.62zM482.58 135.62L525.88 160.62L525.88 210.62L482.58 235.62L439.27 210.62L439.27 160.62zM482.58 285.62L525.88 310.62L525.88 360.62L482.58 385.62L439.27 360.62L439.27 310.62zM569.18 -14.38L612.48 10.62L612.48 60.62L569.18 85.62L525.88 60.62L525.88 10.62zM699.09 210.62L742.39 235.62L742.39 285.62L699.09 310.62L655.78 285.62L655.78 235.62zM829 -14.38L872.3 10.62L872.3 60.62L829 85.62L785.69 60.62L785.69 10.62zM829 135.62L872.3 160.62L872.3 210.62L829 235.62L785.69 210.62L785.69 160.62zM872.3 210.62L915.6 235.62L915.6 285.62L872.3 310.62L829 285.62L829 235.62zM958.9 210.62L1002.21 235.62L1002.21 285.62L958.9 310.62L915.6 285.62L915.6 235.62zM958.9 510.62L1002.21 535.62L1002.21 585.62L958.9 610.62L915.6 585.62L915.6 535.62zM1002.21 135.62L1045.51 160.62L1045.51 210.62L1002.21 235.62L958.9 210.62L958.9 160.62zM1218.72 60.62L1262.02 85.62L1262.02 135.62L1218.72 160.62L1175.41 135.62L1175.41 85.62zM1305.32 360.62L1348.63 385.62L1348.63 435.62L1305.32 460.62L1262.02 435.62L1262.02 385.62zM1305.32 510.62L1348.63 535.62L1348.63 585.62L1305.32 610.62L1262.02 585.62L1262.02 535.62zM1391.93 60.62L1435.23 85.62L1435.23 135.62L1391.93 160.62L1348.63 135.62L1348.63 85.62zM1348.63 285.62L1391.93 310.62L1391.93 360.62L1348.63 385.62L1305.32 360.62L1305.32 310.62zM1391.93 510.62L1435.23 535.62L1435.23 585.62L1391.93 610.62L1348.63 585.62L1348.63 535.62z"
            stroke="rgba(205, 128, 100, 0.32)" stroke-width="2"></path>
    </g>
    <defs>
        <mask id="SvgjsMask1020">
            <rect width="1440" height="560" fill="#ffffff"></rect>
        </mask>
    </defs>
</svg>